<svg xmlns="http://www.w3.org/2000/svg" id="a" viewBox="0 0 254.07 219.55"><polygon points="139.47 .07 139.42 0 115.18 0 .04 148.11 0 148.16 0 165.49 127.81 2.57 253.74 162.45 254.07 162.87 254.07 146.58 139.47 .07"/><path d="M159.91,100.28h30.86v-9.27h-30.86v-23.54h-10.84v23.54h-44.61v-23.54h-9.79v23.54h-30.86v9.27h30.86v55.6H39.22v8.22h24.07v55.45h126.96v-7.71H72.56v-23.68h118.74v-7.7h-31.38v-16.36h57.54v-8.22h-57.54v-55.6Zm-10.84,20.4v13.75h-44.61v-13.75h44.61Zm-44.61-8.22v-12.18h44.61v12.18h-44.61Zm44.61,29.66v13.76h-44.61v-13.76h44.61Zm-54.4,38.34h-22.12v-16.36h22.12v16.36Zm9.79-16.36h44.61v16.36h-44.61v-16.36Z"/><path d="M179.27,10.61c3.02-5.14,3.96-10.34,3.97-10.4l.04-.22h-11.9V.19c0,14.37-8.98,20.45-9.07,20.51l-.52,.34h.62c8.87,0,14.07-5.67,16.86-10.42Z"/><path d="M178,20.7l-.52,.34h.62c8.86,0,14.06-5.67,16.86-10.42,3.02-5.14,3.97-10.34,3.98-10.4l.04-.22h-11.91V.19c0,14.37-8.98,20.45-9.07,20.51Z"/></svg>